<?xml version="1.0" standalone="yes"?>

<svg version="1.1" viewBox="0 0 48 48" width="48" height="48" fill="none" stroke="none" stroke-linecap="square" stroke-miterlimit="10" xmlns="http://www.w3.org/2000/svg" xmlns:xlink="http://www.w3.org/1999/xlink"><clipPath id="p.0"><path d="m0 0l470.0 0l0 470.0l-470.0 0l0 -470.0z" clip-rule="nonzero"></path></clipPath><g clip-path="url(#p.0)"><path fill="#000000" fill-opacity="0.0" d="m0 0l470.0 0l0 470.0l-470.0 0z" fill-rule="evenodd"></path><path fill="#ffffff" d="m442.8447 468.18118l-416.69766 0c-6.769703 0 -13.262135 -2.6892395 -18.049038 -7.4761353c-4.786902 -4.7868958 -7.4761558 -11.279327 -7.4761558 -18.049042l0 -208.52205c0 -0.0021514893 0.0017451644 -0.00390625 0.0038979053 -0.00390625l467.74414 0.00390625l0 0c0.002166748 0 0.00390625 0.001739502 0.00390625 0.0038909912l-0.00390625 208.51816l0 0c0 14.097168 -11.428009 25.525177 -25.525177 25.525177z" fill-rule="evenodd"></path><path fill="#000000" d="m26.142141 0.09061181l416.69763 0c6.7697144 0 13.262146 2.6892538 18.049042 7.4761558c4.7868958 4.7869024 7.476166 11.279334 7.476166 18.049038l0 208.52206c0 0.0021514893 -0.0017700195 0.0038909912 -0.00390625 0.0038909912l-467.74414 -0.0038909912l0 0c-0.002152741 0 -0.0038979053 -0.0017547607 -0.0038979053 -0.00390625l0.0038979053 -208.51816l0 0c0 -14.097175 11.428018 -25.525192 25.525194 -25.525192z" fill-rule="evenodd"></path><path fill="#4a86e8" d="m158.97932 404.41818l0 0c0 -7.6946106 6.2377167 -13.932312 13.932312 -13.932312l282.2224 0c3.6950989 0 7.2388306 1.467865 9.851654 4.0806885c2.6128235 2.6128235 4.0806885 6.156555 4.0806885 9.851624l0 50.804565c0 7.6946106 -6.237732 13.932343 -13.932343 13.932343l-282.2224 0c-7.6945953 0 -13.932312 -6.237732 -13.932312 -13.932343z" fill-rule="evenodd"></path><path fill="#4a86e8" d="m469.07935 343.19177l0 0c0 3.9654236 -3.2146301 7.1800537 -7.1800537 7.1800537l-295.727 0c-1.9042664 0 -3.730545 -0.7564697 -5.077072 -2.1029968c-1.3465118 -1.3465271 -2.1029816 -3.1727905 -2.1029816 -5.077057l0 -61.756134c0 -3.9654236 3.2146149 -7.1800537 7.1800537 -7.1800537l295.727 0c3.9654236 0 7.1800537 3.2146301 7.1800537 7.1800537z" fill-rule="evenodd"></path><path fill="#4a86e8" d="m351.30118 15.829381l0 0c0 -8.691555 7.0458984 -15.737453 15.737457 -15.737453l86.311584 0c4.173828 0 8.176697 1.6580484 11.128052 4.609393c2.951355 2.951345 4.6094055 6.954228 4.6094055 11.128059l0 437.5776c0 8.691559 -7.0458984 15.737457 -15.737457 15.737457l-86.311584 0l0 0c-8.691559 0 -15.737457 -7.0458984 -15.737457 -15.737457z" fill-rule="evenodd"></path><path fill="#4a86e8" d="m310.10037 62.791622l0 0c0 7.463398 -6.050293 13.513676 -13.513672 13.513676l-283.05972 0c-3.5840492 0 -7.021306 -1.4237595 -9.555612 -3.9580612c-2.534306 -2.5343094 -3.9580643 -5.9715652 -3.9580643 -9.555614l0 -49.277992c0 -7.463398 6.050279 -13.513677 13.513677 -13.513677l283.05972 0c7.463379 0 13.513672 6.050279 13.513672 13.513677z" fill-rule="evenodd"></path><path fill="#4a86e8" d="m-7.568418E-4 127.87937l0 0c0 -5.03067 4.078162 -9.108833 9.10883 -9.108833l291.86942 0c2.415802 0 4.7326965 0.95967865 6.440918 2.6679153c1.708252 1.7082367 2.6679077 4.0251007 2.6679077 6.440918l0 57.898567c0 5.03067 -4.0781555 9.108841 -9.108826 9.108841l-291.86942 0c-5.030668 0 -9.10883 -4.078171 -9.10883 -9.108841z" fill-rule="evenodd"></path><path fill="#4a86e8" d="m117.79447 452.684l0 0c0 9.060394 -7.344902 16.405304 -16.405304 16.405304l-84.97589 0c-4.350957 0 -8.523709 -1.7284241 -11.6003 -4.805023c-3.0765915 -3.0765686 -4.805002 -7.2493286 -4.805002 -11.600281l0 -436.27344c0 -9.0604 7.3449044 -16.405304 16.405302 -16.405304l84.97589 0c9.060402 0 16.405304 7.3449044 16.405304 16.405304z" fill-rule="evenodd"></path><path fill="#4a86e8" d="m83.6382 407.2225l34.145638 0l0 61.775513l-34.145638 0z" fill-rule="evenodd"></path><path fill="#4a86e8" d="m158.97932 407.2225l34.14563 0l0 61.775513l-34.14563 0z" fill-rule="evenodd"></path><path fill="#4a86e8" d="m275.9547 0l34.14566 0l0 61.775497l-34.14566 0z" fill-rule="evenodd"></path><path fill="#4a86e8" d="m351.30118 0l34.14563 0l0 61.775497l-34.14563 0z" fill-rule="evenodd"></path></g></svg>
